<?xml version="1.0" encoding="UTF-8" standalone="no" ?>
<!DOCTYPE svg PUBLIC "-//W3C//DTD SVG 1.1//EN" "http://www.w3.org/Graphics/SVG/1.1/DTD/svg11.dtd">
<svg xmlns="http://www.w3.org/2000/svg" xmlns:xlink="http://www.w3.org/1999/xlink" version="1.1" width="1080" height="1080" viewBox="0 0 1080 1080" xml:space="preserve">
<desc>Created with Fabric.js 5.2.4</desc>
<defs>
</defs>
<rect x="0" y="0" width="100%" height="100%" fill="transparent"></rect>
<g transform="matrix(1 0 0 1 540 540)" id="dc949aea-458c-4281-9dff-71d0cc2e9a8e"  >
</g>
<g transform="matrix(1 0 0 1 540 540)" id="12975b47-e308-4966-81c4-3ce2a4cd40d2"  >
<rect style="stroke: none; stroke-width: 1; stroke-dasharray: none; stroke-linecap: butt; stroke-dashoffset: 0; stroke-linejoin: miter; stroke-miterlimit: 4; fill: rgb(255,255,255); fill-rule: nonzero; opacity: 1; visibility: hidden;" vector-effect="non-scaling-stroke"  x="-540" y="-540" rx="0" ry="0" width="1080" height="1080" />
</g>
<g transform="matrix(15.08 0 0 15.08 540 540)" id="5a6c6c4f-8336-42eb-bfdf-9d3f85aae045"  >
<circle style="stroke: rgb(0,0,0); stroke-width: 0; stroke-dasharray: none; stroke-linecap: butt; stroke-dashoffset: 0; stroke-linejoin: miter; stroke-miterlimit: 4; fill: rgb(52,158,72); fill-rule: nonzero; opacity: 1;" vector-effect="non-scaling-stroke"  cx="0" cy="0" r="35" />
</g>
<g transform="matrix(35.4 0 0 35.4 540 540)"  >
<path style="stroke: rgb(255,255,255); stroke-width: 2; stroke-dasharray: none; stroke-linecap: round; stroke-dashoffset: 0; stroke-linejoin: round; stroke-miterlimit: 4; fill: rgb(52,158,72); fill-rule: nonzero; opacity: 1;"  transform=" translate(-12.05, -12.27)" d="M 2.25 18 L 9 11.25 L 13.306000000000001 15.557 C 14.550740471257502 13.102788967405283 16.604354763116838 11.153374231118448 19.119999999999994 10.038000000000004 L 21.86 8.818 M 21.86 8.818 L 15.919999999999998 6.538 M 21.86 8.818 L 19.58 14.759" stroke-linecap="round" />
</g>
</svg>